<svg version="1.0" xmlns="http://www.w3.org/2000/svg" width="1706.667" height="1585.333" viewBox="0 0 1280 1189"><path d="M330 1.1c-4.1.4-12.7 1.3-19 1.9C176.5 16.7 60.1 111.1 18.1 240.3c-9.2 28.5-13 48.4-17.2 91.2-2.2 23 1.9 75.5 8.7 111 20.2 105 72.1 193 173 294 33.8 33.8 53 51.3 154.4 140.7 122 107.5 186.3 173.3 250.2 255.8 14 18.1 38.4 51.9 39.4 54.5.5 1.2 3 1.5 13.3 1.5h12.7l1.6-2.8c3.9-6.6 28.2-41.2 40.1-57.2 42-56.4 91.7-112.1 149.8-168 37.7-36.3 63.8-60 145.4-132.5 92.9-82.6 140-129.9 180.6-181.5 72.1-91.6 104.8-178.6 109.6-291.5.5-11.7-.2-22.1-3.3-49-11.6-100.4-68-191.7-153.4-248.2-43.3-28.6-95.3-48.1-145-54.2-31.7-4-50.1-4.8-64.9-3.1-4.7.6-14.7 1.7-22.1 2.5-93.8 10.5-180.2 61-238.3 139.2-4.1 5.7-8.4 11.6-9.3 13.3-2.3 3.8-4.5 3.8-6.8 0-7.2-12.4-27.9-37.4-44.6-54-54.8-54.8-127.4-90-203-98.5-7.4-.8-17.4-1.9-22.1-2.5-9.8-1.1-25.8-1.1-36.9.1z" fill="#D3D3D3"/></svg>