<svg width="24" height="25" viewBox="0 0 24 25" fill="none" xmlns="http://www.w3.org/2000/svg">
<path d="M12.0053 6.55374C8.59819 6.55374 5.84998 9.30195 5.84998 12.7091C5.84998 16.1162 8.59819 18.8645 12.0053 18.8645C15.4125 18.8645 18.1607 16.1162 18.1607 12.7091C18.1607 9.30195 15.4125 6.55374 12.0053 6.55374ZM12.0053 16.7109C9.80355 16.7109 8.00355 14.9162 8.00355 12.7091C8.00355 10.502 9.79819 8.70731 12.0053 8.70731C14.2125 8.70731 16.0071 10.502 16.0071 12.7091C16.0071 14.9162 14.2071 16.7109 12.0053 16.7109ZM19.8482 6.30195C19.8482 7.10017 19.2053 7.73767 18.4125 7.73767C17.6143 7.73767 16.9768 7.09481 16.9768 6.30195C16.9768 5.5091 17.6196 4.86624 18.4125 4.86624C19.2053 4.86624 19.8482 5.5091 19.8482 6.30195ZM23.925 7.7591C23.8339 5.83588 23.3946 4.13231 21.9857 2.72874C20.5821 1.32517 18.8785 0.885882 16.9553 0.789453C14.9732 0.676953 9.03212 0.676953 7.04998 0.789453C5.13213 0.880525 3.42856 1.31981 2.01963 2.72338C0.610703 4.12695 0.176775 5.83052 0.0803466 7.75374C-0.0321533 9.73588 -0.0321533 15.677 0.0803466 17.6591C0.171418 19.5823 0.610703 21.2859 2.01963 22.6895C3.42856 24.093 5.12677 24.5323 7.04998 24.6287C9.03212 24.7412 14.9732 24.7412 16.9553 24.6287C18.8785 24.5377 20.5821 24.0984 21.9857 22.6895C23.3892 21.2859 23.8285 19.5823 23.925 17.6591C24.0375 15.677 24.0375 9.74124 23.925 7.7591ZM21.3642 19.7859C20.9464 20.8359 20.1375 21.6448 19.0821 22.068C17.5018 22.6948 13.7518 22.5502 12.0053 22.5502C10.2589 22.5502 6.50355 22.6895 4.92855 22.068C3.87856 21.6502 3.06963 20.8412 2.64641 19.7859C2.01963 18.2055 2.16427 14.4555 2.16427 12.7091C2.16427 10.9627 2.02499 7.20731 2.64641 5.63231C3.06427 4.58231 3.8732 3.77338 4.92855 3.35017C6.50891 2.72338 10.2589 2.86802 12.0053 2.86802C13.7518 2.86802 17.5071 2.72874 19.0821 3.35017C20.1321 3.76802 20.941 4.57695 21.3642 5.63231C21.991 7.21267 21.8464 10.9627 21.8464 12.7091C21.8464 14.4555 21.991 18.2109 21.3642 19.7859Z" fill="white"/>
</svg>
